<?xml version="1.0" encoding="UTF-8" standalone="no"?>
<svg
   height="128"
   width="128"
   version="1.1"
   id="svg7"
   sodipodi:docname="icon.svg"
   xmlns:inkscape="http://www.inkscape.org/namespaces/inkscape"
   xmlns:sodipodi="http://sodipodi.sourceforge.net/DTD/sodipodi-0.dtd"
   xmlns="http://www.w3.org/2000/svg"
   xmlns:svg="http://www.w3.org/2000/svg">
  <defs
     id="defs7" />
  <sodipodi:namedview
     id="namedview7"
     pagecolor="#ffffff"
     bordercolor="#000000"
     borderopacity="0.25"
     inkscape:showpageshadow="2"
     inkscape:pageopacity="0.0"
     inkscape:pagecheckerboard="0"
     inkscape:deskcolor="#d1d1d1" />
  <rect
     x="2"
     y="2"
     width="124"
     height="124"
     rx="14"
     fill="#363d52"
     stroke="#212532"
     stroke-width="4"
     id="rect1" />
  <g
     transform="matrix(0.101,0,0,0.101,12.322,12.322)"
     id="g7">
    <g
       fill="#ffffff"
       id="g4">
      <path
         d="m 105,673 v 33 q 407,354 814,0 v -33 z"
         id="path1" />
      <path
         fill="#478cbf"
         d="m 105,673 152,14 q 12,1 15,14 l 4,67 132,10 8,-61 q 2,-11 15,-15 h 162 q 13,4 15,15 l 8,61 132,-10 4,-67 q 3,-13 15,-14 L 919,673 V 427 q 30,-39 56,-81 -35,-59 -83,-108 -43,20 -82,47 -40,-37 -88,-64 7,-51 8,-102 -59,-28 -123,-42 -26,43 -46,89 -49,-7 -98,0 -20,-46 -46,-89 -64,14 -123,42 1,51 8,102 -48,27 -88,64 -39,-27 -82,-47 -48,49 -83,108 26,42 56,81 z m 0,33 v 39 c 0,276 813,276 813,0 v -39 l -134,12 -5,69 q -2,10 -14,13 l -162,11 q -12,0 -16,-11 L 577,735 H 447 l -10,65 q -4,11 -16,11 L 259,800 q -12,-3 -14,-13 l -5,-69 z"
         id="path2" />
      <path
         d="m 483,600 c 3,34 55,34 58,0 v -86 c -3,-34 -55,-34 -58,0 z"
         id="path3" />
      <circle
         cx="725"
         cy="526"
         r="90"
         id="circle3" />
      <circle
         cx="299"
         cy="526"
         r="90"
         id="circle4" />
    </g>
    <g
       fill="#414042"
       id="g6">
      <circle
         cx="307"
         cy="532"
         r="60"
         id="circle5" />
      <circle
         cx="717"
         cy="532"
         r="60"
         id="circle6" />
    </g>
  </g>
  <path
     style="fill:#ff0000;stroke-width:0.542373"
     d="M 45.559322,90.079664 C 43.322034,89.90534 41.186441,89.565256 40.813559,89.323921 40.39914,89.055707 40.135593,87.65837 40.135593,85.729318 c 0,-1.86746 -0.277516,-3.386137 -0.679773,-3.719978 -0.373875,-0.310292 -4.156926,-0.868806 -8.40678,-1.241145 L 23.322034,80.091211 V 67.879818 55.668424 l -2.711865,-3.92285 c -1.491525,-2.157568 -2.711864,-4.219212 -2.711864,-4.581432 0,-0.807645 4.810843,-7.355517 6.716719,-9.141893 l 1.386735,-1.299786 3.948273,2.290935 c 2.365663,1.372647 4.188967,2.11105 4.548753,1.842159 0.330263,-0.246828 2.349897,-1.669116 4.488075,-3.160642 l 3.887596,-2.711864 -0.336806,-5.198924 -0.336806,-5.198924 2.628392,-1.121307 c 2.819055,-1.202647 8.114891,-2.853727 9.153325,-2.853727 0.348224,0 1.578457,1.926014 2.733851,4.28003 l 2.100717,4.28003 h 5.213536 5.213537 l 1.992983,-4.027752 c 1.096141,-2.215264 2.365728,-4.170787 2.821304,-4.345607 0.455572,-0.17482 3.199122,0.520721 6.096776,1.545646 l 5.268464,1.863501 -0.149484,5.430722 c -0.144748,5.258636 -0.108626,5.449339 1.140036,6.018267 0.709239,0.32315 2.683303,1.722796 4.386815,3.110324 1.703511,1.387529 3.265068,2.446513 3.470128,2.353301 0.205066,-0.09321 2.036551,-1.114826 4.069972,-2.270252 l 3.697134,-2.100773 1.6462,1.5584 c 2.04324,1.934246 6.41716,7.973668 6.41716,8.860673 0,0.360824 -1.22033,2.421327 -2.71186,4.578895 l -2.71186,3.92285 v 12.226664 12.226664 l -7.728817,0.676713 c -4.250848,0.372198 -8.033899,0.92384 -8.40678,1.225877 -0.41318,0.334676 -0.677966,1.890511 -0.677966,3.983593 v 3.434435 l -1.762712,0.269587 c -0.969492,0.148274 -3.88506,0.415056 -6.47904,0.592857 l -4.716323,0.32327 -0.325131,-2.059807 C 74.402381,87.435384 74.074913,85.776271 73.8535,84.881356 l -0.402571,-1.627119 h -9.468802 -9.4688 l -0.450228,2.440678 c -0.954012,5.171683 -0.79531,4.888326 -2.683602,4.791528 -0.963808,-0.0494 -3.582887,-0.232455 -5.820175,-0.406779 z m 20.61017,-15.232206 c 0.939288,-0.939289 1.084745,-1.80791 1.084745,-6.47772 0,-4.958103 -0.0972,-5.461057 -1.205427,-6.237288 -1.62239,-1.136367 -2.915189,-1.062681 -4.218302,0.240431 -0.9325,0.932501 -1.084745,1.80791 -1.084745,6.237288 0,4.429379 0.152245,5.304788 1.084745,6.237289 0.596611,0.59661 1.572882,1.084745 2.169492,1.084745 0.59661,0 1.572881,-0.488135 2.169492,-1.084745 z M 46.415511,73.818939 c 9.027448,-4.100063 6.13724,-17.567123 -3.770134,-17.567123 -4.536064,0 -7.641566,2.220833 -9.042865,6.46681 -0.970458,2.940519 -0.234161,6.207538 1.982706,8.797449 2.833576,3.310398 6.769328,4.147263 10.830293,2.302864 z m 42.695128,0.295749 c 2.374904,-0.992299 5.129876,-4.247404 5.56704,-6.577668 1.323623,-7.055515 -4.697172,-12.766955 -11.620931,-11.023832 -4.681448,1.1786 -7.448455,5.807858 -6.536271,10.935308 0.502785,2.826179 1.985871,4.716893 4.846536,6.178623 2.722516,1.391137 5.206731,1.547552 7.743626,0.487569 z"
     id="path7" />
  <path
     style="fill:#ff0000;stroke-width:0.542373"
     d="m 57.762712,107.84329 c -14.054658,-0.84832 -25.036135,-4.87648 -30.81421,-11.303093 -2.634638,-2.930352 -3.626468,-5.5954 -3.626468,-9.744319 v -2.840983 l 4.474576,0.349956 c 2.461017,0.192475 5.366824,0.479512 6.457349,0.637859 l 1.982772,0.287904 0.377574,3.759719 c 0.207666,2.067845 0.583887,3.887226 0.836047,4.04307 0.25216,0.155843 4.517439,0.565723 9.478398,0.910842 10.312017,0.717378 9.728104,0.944671 10.303226,-4.010611 l 0.366057,-3.153973 h 6.428288 6.428289 l 0.367142,3.245111 c 0.201929,1.784812 0.713464,3.532532 1.136745,3.883824 0.589222,0.489012 2.822363,0.491873 9.527892,0.01221 4.817058,-0.344577 8.960033,-0.828246 9.206612,-1.074821 0.246573,-0.246575 0.599072,-2.062732 0.783327,-4.035906 l 0.335018,-3.587588 1.958731,-0.283842 c 1.077305,-0.156114 3.972296,-0.441323 6.433313,-0.633798 l 4.47458,-0.349956 -0.005,3.175095 c -0.013,7.791782 -5.817039,13.72352 -17.129088,17.50596 -8.456954,2.82777 -18.374102,3.89583 -29.78087,3.20734 z"
     id="path8" />
  <path
     style="fill:#000037;fill-opacity:1;stroke-width:0.542373"
     d="M 11.118644,122.63275 C 9.9254237,122.08031 8.2909134,120.92635 7.4863989,120.06839 4.1882824,116.5512 4.3378633,119.2316 4.3508946,63.881828 4.3622165,15.793138 4.4125383,13.180719 5.367248,11.118644 5.919691,9.9254237 7.0736528,8.2909134 7.9316076,7.4863989 11.448803,4.1882824 8.7683932,4.3378633 64.118172,4.3508946 c 48.088688,0.011322 50.701108,0.061644 52.763188,1.0163534 1.19322,0.552443 2.82773,1.7064048 3.63224,2.5643596 3.29688,3.5158794 3.14742,0.8532585 3.14742,56.0683924 0,55.21513 0.14946,52.55251 -3.14742,56.06839 -0.80451,0.85796 -2.43902,2.01192 -3.63224,2.56436 -2.0628,0.95505 -4.66351,1.00445 -52.88136,1.00445 -48.21785,0 -50.81856,-0.0494 -52.881356,-1.00445 z m 70.237288,-15.69456 c 9.44326,-2.2152 15.229261,-4.96325 19.552368,-9.286355 4.14126,-4.141272 4.31204,-5.121714 4.31204,-24.756057 V 55.950894 l 2.97964,-4.325534 2.97963,-4.325534 -2.14295,-3.175336 c -1.17862,-1.746436 -3.07707,-4.245753 -4.21878,-5.554037 -2.37677,-2.723534 -2.56233,-2.718319 -7.423005,0.208625 L 94.268963,40.661404 91.202278,38.31216 C 89.515601,37.020075 87.576233,35.66738 86.892572,35.306168 85.684713,34.668 85.659911,34.498996 86.015783,29.331983 l 0.366232,-5.317439 -3.73338,-1.396875 c -5.245625,-1.962694 -8.143393,-2.742735 -8.986739,-2.419113 -0.398541,0.152934 -1.656602,2.13862 -2.795694,4.412635 l -2.071078,4.134572 -4.702644,-0.008 -4.702649,-0.008 -2.207155,-4.195342 c -2.142373,-4.072206 -2.262587,-4.192205 -4.095764,-4.088435 -1.038735,0.0588 -4.040676,0.885617 -6.670981,1.837372 l -4.782371,1.730464 0.374401,5.280953 0.374402,5.280953 -1.843663,1.139446 c -1.014013,0.626695 -2.890778,1.968058 -4.170587,2.980808 l -2.326925,1.841362 -4.306652,-2.234726 -4.306653,-2.234726 -2.161215,2.440678 c -1.188668,1.342372 -3.116752,3.887532 -4.284631,5.655908 l -2.123416,3.215231 2.933119,4.185874 2.93312,4.185875 0.162994,18.090421 0.162993,18.090419 1.443139,2.440678 c 0.793726,1.342373 2.136099,3.09548 2.98305,3.895789 4.290602,4.054325 13.661815,7.896275 22.963642,9.414475 6.866586,1.12073 24.804572,0.68848 30.915254,-0.74496 z"
     id="path9" />
  <path
     style="fill:#800000;fill-opacity:1;stroke-width:0.542373"
     d="m 75.090267,89.785247 c -0.09832,-0.310698 -0.454535,-1.968298 -0.791604,-3.683552 l -0.61286,-3.118644 h -9.677236 -9.677238 l -0.728626,3.38983 -0.728626,3.389831 -2.979411,0.154668 c -1.638676,0.08507 -4.321785,-0.03864 -5.962463,-0.274901 l -2.98305,-0.429576 -0.488938,-3.630796 c -0.332322,-2.467791 -0.76155,-3.735409 -1.340003,-3.957386 -0.603651,-0.231642 -13.622876,-1.802755 -15.662585,-1.890099 -0.07458,-0.0032 -0.135593,-5.545736 -0.135593,-12.316759 V 55.106911 l -2.440678,-3.637769 c -1.342373,-2.000773 -2.440678,-3.934936 -2.440678,-4.298139 0,-0.855066 4.345279,-6.917479 6.181448,-8.624185 l 1.417535,-1.317589 4.019999,2.124656 4.02,2.124655 4.519492,-3.100476 4.519492,-3.100476 -0.301685,-5.028625 c -0.223707,-3.72887 -0.121984,-5.181768 0.393559,-5.621122 1.20366,-1.02578 9.705913,-3.681959 10.639262,-3.323799 0.490449,0.188203 1.757616,2.061616 2.815927,4.16314 l 1.924201,3.820954 h 5.367887 5.367887 l 2.232536,-4.067797 c 1.227897,-2.237288 2.548033,-4.067797 2.933633,-4.067797 0.905849,0 6.011124,1.514738 8.626793,2.559573 l 2.033898,0.812446 v 5.352335 c 0,5.246839 0.0294,5.371075 1.491526,6.303106 0.820339,0.522924 2.672765,1.870924 4.116501,2.995554 1.443737,1.124631 2.956085,2.044783 3.360771,2.044783 0.404691,0 2.193334,-0.854237 3.974763,-1.898305 1.781429,-1.044068 3.474577,-1.898305 3.762557,-1.898305 1.12892,0 7.70066,8.352641 7.70066,9.787494 0,0.353593 -1.0983,2.294983 -2.44068,4.314201 l -2.44067,3.671303 v 12.241467 12.241464 l -1.76272,0.25574 c -0.96949,0.140654 -4.394756,0.528667 -7.6117,0.862254 -3.216949,0.333581 -6.20678,0.743804 -6.644068,0.911609 -0.584353,0.224239 -0.795075,1.228599 -0.795075,3.789516 0,2.294671 -0.23149,3.568466 -0.677966,3.730576 -1.712049,0.621603 -11.92684,1.091038 -12.096174,0.555894 z M 66.262378,75.034582 c 0.844369,-0.764142 0.991859,-1.769448 0.991859,-6.760577 0,-5.24144 -0.111211,-5.922477 -1.049089,-6.424414 -1.535948,-0.822015 -3.337548,-0.686451 -4.467526,0.336165 -1.395847,1.263225 -1.469524,11.234915 -0.09424,12.754588 1.117651,1.234989 3.309074,1.279702 4.618995,0.09424 z M 47.208123,73.598514 c 2.784265,-1.472354 4.859674,-4.898031 4.859674,-8.021393 0,-6.000012 -5.119002,-10.36958 -11.097748,-9.473012 -6.873023,1.030674 -10.134991,8.475112 -6.337432,14.463241 2.717758,4.285461 7.85981,5.524886 12.575506,3.031164 z m 43.186649,0.108768 c 1.014665,-0.627097 2.446861,-2.026126 3.18266,-3.108954 2.747428,-4.043199 1.26733,-10.631012 -2.980502,-13.266021 -2.656781,-1.648049 -7.966112,-1.680531 -10.150378,-0.0621 -6.250804,4.631537 -5.60531,13.826921 1.180567,16.817668 2.539167,1.119092 6.628322,0.941585 8.767653,-0.380595 z"
     id="path10" />
  <path
     style="fill:#800000;fill-opacity:1;stroke-width:0.542373"
     d="M 55.59322,107.38713 C 40.526424,106.03569 28.412647,100.35316 24.994541,93.03339 24.433121,91.831127 23.812457,89.299417 23.615288,87.407369 l -0.358491,-3.44009 1.524144,0.297374 c 0.838279,0.163555 3.662388,0.459328 6.275797,0.657272 5.295702,0.401106 4.906236,0.02437 5.520752,5.340296 0.169694,1.467951 0.405605,2.766071 0.524246,2.884713 0.390398,0.390398 10.266274,1.196263 14.843892,1.211252 4.324404,0.01416 4.507281,-0.03602 5.016949,-1.376545 0.290922,-0.765182 0.532686,-2.168572 0.537254,-3.118644 0.01443,-3.001714 0.324634,-3.136761 6.81528,-2.967022 l 5.922177,0.154872 0.139343,1.627119 c 0.07664,0.894915 0.391521,2.542373 0.699738,3.661017 l 0.560395,2.033898 4.452805,-0.0094 c 4.32904,-0.0091 14.477764,-0.885616 14.876972,-1.284826 0.109169,-0.10917 0.323271,-1.143986 0.47578,-2.299591 0.15251,-1.155605 0.391876,-2.86593 0.531922,-3.800723 l 0.254628,-1.699623 4.733022,-0.358347 c 2.603162,-0.19709 5.418887,-0.492165 6.257167,-0.65572 l 1.52414,-0.297374 -0.37767,3.44009 c -0.20773,1.892048 -0.94306,4.568499 -1.63407,5.947668 -5.019221,10.017695 -25.134872,16.005715 -47.13824,14.032095 z"
     id="path11" />
</svg>
